<svg role="img" viewBox="0 0 24 24" xmlns="http://www.w3.org/2000/svg"><title>Zabbix</title><path d="M18.807 0H2.27a.78.78 0 0 0-.77.796v2.102c0 .43.25.795.68.795h12.597l-9.06 9.387H2.27c-.43 0-.68.364-.68.795v2.33c0 .43.25.795.68.795h16.536a.78.78 0 0 0 .77-.796v-2.101a.71.71 0 0 0-.68-.795H6.299l9.06-9.387h3.448c.43 0 .68-.364.68-.795V.796A.78.78 0 0 0 18.807 0zM5.193 24h16.537c.43 0 .68-.364.68-.795v-2.102a.71.71 0 0 0-.68-.795H9.133l9.06-9.387h3.448c.43 0 .68-.364.68-.795v-2.33c0-.43-.25-.795-.68-.795H5.193c-.43 0-.68.364-.68.795v2.101a.71.71 0 0 0 .68.795h12.597l-9.06 9.387H5.193c-.43 0-.68.364-.68.795v2.33c0 .43.25.795.68.795z"/></svg>
